<?xml version="1.0" encoding="UTF-8" standalone="no"?>
<!-- Created with Inkscape (http://www.inkscape.org/) -->

<svg
   version="1.1"
   id="svg2"
   xml:space="preserve"
   width="838.52264"
   height="560.73334"
   viewBox="0 0 838.52264 560.73334"
   sodipodi:docname="Logo_LIER-FYT_Court_RVB-1.ai.svg"
   inkscape:version="1.1.1 (3bf5ae0d25, 2021-09-20)"
   xmlns:inkscape="http://www.inkscape.org/namespaces/inkscape"
   xmlns:sodipodi="http://sodipodi.sourceforge.net/DTD/sodipodi-0.dtd"
   xmlns="http://www.w3.org/2000/svg"
   xmlns:svg="http://www.w3.org/2000/svg"><defs
     id="defs6"><clipPath
       clipPathUnits="userSpaceOnUse"
       id="clipPath28"><path
         d="M 0,420.55 H 628.892 V 0 H 0 Z"
         id="path26" /></clipPath></defs><sodipodi:namedview
     id="namedview4"
     pagecolor="#ffffff"
     bordercolor="#666666"
     borderopacity="1.0"
     inkscape:pageshadow="2"
     inkscape:pageopacity="0.0"
     inkscape:pagecheckerboard="0"
     showgrid="false"
     inkscape:zoom="1.4677208"
     inkscape:cx="419.35768"
     inkscape:cy="280.36667"
     inkscape:window-width="1920"
     inkscape:window-height="996"
     inkscape:window-x="0"
     inkscape:window-y="0"
     inkscape:window-maximized="1"
     inkscape:current-layer="g8" /><g
     id="g8"
     inkscape:groupmode="layer"
     inkscape:label="Logo_LIER-FYT_Court_RVB-1"
     transform="matrix(1.3333333,0,0,-1.3333333,0,560.73333)"><g
       id="g10"
       transform="translate(98.6777,332.4524)"><path
         d="m 0,0 h 24.265 v -89.836 h 48.522 v -24.262 H 0 Z"
         style="fill:#203649;fill-opacity:1;fill-rule:nonzero;stroke:none"
         id="path12" /></g><g
       id="g14"
       transform="translate(204.9683,218.3548)"><path
         d="M 0,0 V 24.261 H 24.265 V 89.836 H 0 v 24.262 H 72.787 V 89.836 H 48.526 V 24.261 H 72.787 V 0 Z"
         style="fill:#203649;fill-opacity:1;fill-rule:nonzero;stroke:none"
         id="path16" /></g><g
       id="g18"
       transform="translate(311.9092,332.4524)"><path
         d="M 0,0 H 72.783 V -24.261 H 24.261 V -44.81 H 72.783 V -69.071 H 24.261 v -20.765 h 48.522 v -24.262 H 0 Z"
         style="fill:#203649;fill-opacity:1;fill-rule:nonzero;stroke:none"
         id="path20" /></g><g
       id="g22"><g
         id="g24"
         clip-path="url(#clipPath28)"><g
           id="g30"
           transform="translate(496.7705,288.7366)"><path
             d="m 0,0 c 0,10.711 -8.74,19.455 -19.451,19.455 h -31.694 v -38.91 h 31.694 C -8.74,-19.455 0,-10.71 0,0 M 33.443,-70.382 H -0.656 l -26.662,26.666 H -51.145 V -70.382 H -75.406 V 43.716 h 55.955 C 4.593,43.716 24.265,24.044 24.265,0 c 0,-16.394 -9.4,-30.821 -22.95,-38.249 z"
             style="fill:#203649;fill-opacity:1;fill-rule:nonzero;stroke:none"
             id="path32" /></g><g
           id="g34"
           transform="translate(110.8711,88.0979)"><path
             d="m 0,0 c -3.291,0 -5.958,2.668 -5.958,5.959 v 0.198 c 0,3.291 2.667,5.959 5.958,5.959 3.291,0 5.958,-2.668 5.958,-5.959 V 5.959 C 5.958,2.668 3.291,0 0,0"
             style="fill:#ff8500;fill-opacity:1;fill-rule:nonzero;stroke:none"
             id="path36" /></g><g
           id="g38"
           transform="translate(110.8711,148.4222)"><path
             d="m 0,0 c -3.291,0 -5.958,2.668 -5.958,5.959 v 0.427 c 0,3.291 2.667,5.959 5.958,5.959 3.291,0 5.958,-2.668 5.958,-5.959 V 5.959 C 5.958,2.668 3.291,0 0,0 m 0,-30.276 c -3.291,0 -5.958,2.668 -5.958,5.959 v 0.426 c 0,3.291 2.667,5.959 5.958,5.959 3.291,0 5.958,-2.668 5.958,-5.959 v -0.426 c 0,-3.291 -2.667,-5.959 -5.958,-5.959"
             style="fill:#ff8500;fill-opacity:1;fill-rule:nonzero;stroke:none"
             id="path40" /></g><g
           id="g42"
           transform="translate(110.8711,178.6985)"><path
             d="m 0,0 c -3.291,0 -5.958,2.668 -5.958,5.959 v 0.199 c 0,3.291 2.667,5.959 5.958,5.959 H 0.199 C 3.49,12.117 6.157,9.449 6.157,6.158 6.157,4.465 5.451,2.937 4.317,1.852 3.231,0.711 1.699,0 0,0"
             style="fill:#ff8500;fill-opacity:1;fill-rule:nonzero;stroke:none"
             id="path44" /></g><g
           id="g46"
           transform="translate(138.2041,178.8978)"><path
             d="m 0,0 h -0.382 c -3.291,0 -5.959,2.668 -5.959,5.959 0,3.291 2.668,5.959 5.959,5.959 H 0 C 3.291,11.918 5.958,9.25 5.958,5.959 5.958,2.668 3.291,0 0,0"
             style="fill:#ff8500;fill-opacity:1;fill-rule:nonzero;stroke:none"
             id="path48" /></g><g
           id="g50"
           transform="translate(165.1543,178.8978)"><path
             d="m 0,0 h -0.199 c -3.291,0 -5.958,2.668 -5.958,5.959 0,3.291 2.667,5.959 5.958,5.959 H 0 C 3.291,11.918 5.958,9.25 5.958,5.959 5.958,2.668 3.291,0 0,0"
             style="fill:#ff8500;fill-opacity:1;fill-rule:nonzero;stroke:none"
             id="path52" /></g><g
           id="g54"
           transform="translate(378.1875,178.8978)"><path
             d="m 0,0 h -0.199 c -3.291,0 -5.958,2.668 -5.958,5.959 0,3.291 2.667,5.959 5.958,5.959 H 0 C 3.291,11.918 5.958,9.25 5.958,5.959 5.958,2.668 3.291,0 0,0"
             style="fill:#ff8500;fill-opacity:1;fill-rule:nonzero;stroke:none"
             id="path56" /></g><g
           id="g58"
           transform="translate(351.2368,178.8978)"><path
             d="m 0,0 h -0.382 c -3.291,0 -5.959,2.668 -5.959,5.959 0,3.291 2.668,5.959 5.959,5.959 H 0 C 3.291,11.918 5.958,9.25 5.958,5.959 5.958,2.668 3.291,0 0,0"
             style="fill:#ff8500;fill-opacity:1;fill-rule:nonzero;stroke:none"
             id="path60" /></g><g
           id="g62"
           transform="translate(323.9043,178.6985)"><path
             d="m 0,0 c -3.291,0 -5.958,2.668 -5.958,5.959 v 0.199 c 0,3.291 2.667,5.959 5.958,5.959 H 0.199 C 3.49,12.117 6.157,9.449 6.157,6.158 6.157,4.465 5.451,2.937 4.317,1.852 3.231,0.711 1.699,0 0,0"
             style="fill:#ff8500;fill-opacity:1;fill-rule:nonzero;stroke:none"
             id="path64" /></g><g
           id="g66"
           transform="translate(323.9043,148.4222)"><path
             d="m 0,0 c -3.291,0 -5.958,2.668 -5.958,5.959 v 0.427 c 0,3.291 2.667,5.959 5.958,5.959 3.291,0 5.958,-2.668 5.958,-5.959 V 5.959 C 5.958,2.668 3.291,0 0,0 m 0,-30.276 c -3.291,0 -5.958,2.668 -5.958,5.959 v 0.426 c 0,3.291 2.667,5.959 5.958,5.959 3.291,0 5.958,-2.668 5.958,-5.959 v -0.426 c 0,-3.291 -2.667,-5.959 -5.958,-5.959"
             style="fill:#ff8500;fill-opacity:1;fill-rule:nonzero;stroke:none"
             id="path68" /></g><g
           id="g70"
           transform="translate(324.103,88.0979)"><path
             d="M 0,0 H -0.199 C -3.49,0 -6.157,2.668 -6.157,5.959 v 0.198 c 0,3.291 2.667,5.959 5.958,5.959 1.694,0 3.222,-0.707 4.306,-1.841 C 5.248,9.19 5.958,7.657 5.958,5.959 5.958,2.668 3.291,0 0,0"
             style="fill:#ff8500;fill-opacity:1;fill-rule:nonzero;stroke:none"
             id="path72" /></g><g
           id="g74"
           transform="translate(351.2368,88.0979)"><path
             d="m 0,0 h -0.382 c -3.291,0 -5.959,2.668 -5.959,5.959 0,3.291 2.668,5.959 5.959,5.959 H 0 C 3.291,11.918 5.958,9.25 5.958,5.959 5.958,2.668 3.291,0 0,0"
             style="fill:#ff8500;fill-opacity:1;fill-rule:nonzero;stroke:none"
             id="path76" /></g><g
           id="g78"
           transform="translate(378.1875,88.0979)"><path
             d="m 0,0 h -0.199 c -3.291,0 -5.958,2.668 -5.958,5.959 0,3.291 2.667,5.959 5.958,5.959 H 0 C 3.291,11.918 5.958,9.25 5.958,5.959 5.958,2.668 3.291,0 0,0"
             style="fill:#ff8500;fill-opacity:1;fill-rule:nonzero;stroke:none"
             id="path80" /></g><g
           id="g82"
           transform="translate(432.1426,178.6985)"><path
             d="m 0,0 c -3.291,0 -5.958,2.668 -5.958,5.959 v 0.199 c 0,3.291 2.667,5.959 5.958,5.959 3.291,0 5.958,-2.668 5.958,-5.959 V 5.959 C 5.958,2.668 3.291,0 0,0"
             style="fill:#ff8500;fill-opacity:1;fill-rule:nonzero;stroke:none"
             id="path84" /></g><g
           id="g86"
           transform="translate(432.1426,148.4222)"><path
             d="m 0,0 c -3.291,0 -5.958,2.668 -5.958,5.959 v 0.427 c 0,3.291 2.667,5.959 5.958,5.959 3.291,0 5.958,-2.668 5.958,-5.959 V 5.959 C 5.958,2.668 3.291,0 0,0 m 0,-30.276 c -3.291,0 -5.958,2.668 -5.958,5.959 v 0.426 c 0,3.291 2.667,5.959 5.958,5.959 3.291,0 5.958,-2.668 5.958,-5.959 v -0.426 c 0,-3.291 -2.667,-5.959 -5.958,-5.959"
             style="fill:#ff8500;fill-opacity:1;fill-rule:nonzero;stroke:none"
             id="path88" /></g><g
           id="g90"
           transform="translate(432.3413,88.0979)"><path
             d="M 0,0 H -0.199 C -3.49,0 -6.157,2.668 -6.157,5.959 v 0.198 c 0,3.291 2.667,5.959 5.958,5.959 1.694,0 3.222,-0.707 4.306,-1.841 C 5.248,9.19 5.958,7.657 5.958,5.959 5.958,2.668 3.291,0 0,0"
             style="fill:#ff8500;fill-opacity:1;fill-rule:nonzero;stroke:none"
             id="path92" /></g><g
           id="g94"
           transform="translate(459.4756,88.0979)"><path
             d="m 0,0 h -0.382 c -3.291,0 -5.959,2.668 -5.959,5.959 0,3.291 2.668,5.959 5.959,5.959 H 0 C 3.291,11.918 5.958,9.25 5.958,5.959 5.958,2.668 3.291,0 0,0"
             style="fill:#ff8500;fill-opacity:1;fill-rule:nonzero;stroke:none"
             id="path96" /></g><g
           id="g98"
           transform="translate(486.4258,88.0979)"><path
             d="m 0,0 h -0.199 c -3.291,0 -5.958,2.668 -5.958,5.959 0,3.291 2.667,5.959 5.958,5.959 H 0 C 3.291,11.918 5.958,9.25 5.958,5.959 5.958,2.668 3.291,0 0,0"
             style="fill:#ff8500;fill-opacity:1;fill-rule:nonzero;stroke:none"
             id="path100" /></g><g
           id="g102"
           transform="translate(268.5034,178.8978)"><path
             d="m 0,0 h -0.198 c -3.291,0 -5.959,2.668 -5.959,5.959 0,3.291 2.668,5.959 5.959,5.959 H 0 C 3.291,11.918 5.958,9.25 5.958,5.959 5.958,2.668 3.291,0 0,0"
             style="fill:#ff8500;fill-opacity:1;fill-rule:nonzero;stroke:none"
             id="path104" /></g><g
           id="g106"
           transform="translate(241.3618,178.6985)"><path
             d="m 0,0 c -3.291,0 -5.958,2.668 -5.958,5.959 v 0.199 c 0,3.291 2.667,5.959 5.958,5.959 H 0.199 C 3.49,12.117 6.157,9.449 6.157,6.158 6.157,4.465 5.451,2.937 4.317,1.852 3.231,0.711 1.699,0 0,0"
             style="fill:#ff8500;fill-opacity:1;fill-rule:nonzero;stroke:none"
             id="path108" /></g><g
           id="g110"
           transform="translate(241.3618,148.4222)"><path
             d="m 0,0 c -3.291,0 -5.958,2.668 -5.958,5.959 v 0.427 c 0,3.291 2.667,5.959 5.958,5.959 3.291,0 5.958,-2.668 5.958,-5.959 V 5.959 C 5.958,2.668 3.291,0 0,0 m 0,-30.276 c -3.291,0 -5.958,2.668 -5.958,5.959 v 0.426 c 0,3.291 2.667,5.959 5.958,5.959 3.291,0 5.958,-2.668 5.958,-5.959 v -0.426 c 0,-3.291 -2.667,-5.959 -5.958,-5.959"
             style="fill:#ff8500;fill-opacity:1;fill-rule:nonzero;stroke:none"
             id="path112" /></g><g
           id="g114"
           transform="translate(241.5605,88.0979)"><path
             d="M 0,0 H -0.199 C -3.49,0 -6.157,2.668 -6.157,5.959 v 0.198 c 0,3.291 2.667,5.959 5.958,5.959 1.694,0 3.222,-0.707 4.306,-1.841 C 5.248,9.19 5.958,7.657 5.958,5.959 5.958,2.668 3.291,0 0,0"
             style="fill:#ff8500;fill-opacity:1;fill-rule:nonzero;stroke:none"
             id="path116" /></g><g
           id="g118"
           transform="translate(268.5034,88.0979)"><path
             d="m 0,0 h -0.198 c -3.291,0 -5.959,2.668 -5.959,5.959 0,3.291 2.668,5.959 5.959,5.959 H 0 C 3.291,11.918 5.958,9.25 5.958,5.959 5.958,2.668 3.291,0 0,0"
             style="fill:#ff8500;fill-opacity:1;fill-rule:nonzero;stroke:none"
             id="path120" /></g><g
           id="g122"
           transform="translate(214.751,88.0979)"><path
             d="m 0,0 h -0.397 c -3.291,0 -5.959,2.668 -5.959,5.959 0,3.291 2.668,5.959 5.959,5.959 H 0 C 3.291,11.918 5.958,9.25 5.958,5.959 5.958,2.668 3.291,0 0,0"
             style="fill:#ff8500;fill-opacity:1;fill-rule:nonzero;stroke:none"
             id="path124" /></g><g
           id="g126"
           transform="translate(350.3228,133.262)"><path
             d="m 0,0 h -0.397 c -3.291,0 -5.959,2.668 -5.959,5.959 0,3.291 2.668,5.959 5.959,5.959 H 0 C 3.291,11.918 5.958,9.25 5.958,5.959 5.958,2.668 3.291,0 0,0 m 28.204,0 h -0.397 c -3.291,0 -5.959,2.668 -5.959,5.959 0,3.291 2.668,5.959 5.959,5.959 h 0.397 c 3.291,0 5.958,-2.668 5.958,-5.959 C 34.162,2.668 31.495,0 28.204,0"
             style="fill:#ff8500;fill-opacity:1;fill-rule:nonzero;stroke:none"
             id="path128" /></g><g
           id="g130"
           transform="translate(214.751,178.8978)"><path
             d="m 0,0 h -0.397 c -3.291,0 -5.959,2.668 -5.959,5.959 0,3.291 2.668,5.959 5.959,5.959 H 0 C 3.291,11.918 5.958,9.25 5.958,5.959 5.958,2.668 3.291,0 0,0"
             style="fill:#ff8500;fill-opacity:1;fill-rule:nonzero;stroke:none"
             id="path132" /></g><g
           id="g134"
           transform="translate(459.2803,150.1976)"><path
             d="m 0,0 c -3.195,0 -5.839,2.533 -5.951,5.752 -0.114,3.289 2.459,6.048 5.748,6.162 L 0.2,11.928 C 3.494,12.021 6.246,9.465 6.358,6.175 6.47,2.887 3.895,0.13 0.605,0.018 L 0.21,0.004 C 0.141,0.002 0.07,0 0,0 m 28.396,-1.81 c -0.606,0 -1.223,0.094 -1.832,0.291 l -0.345,0.112 c -3.136,0.997 -4.87,4.347 -3.874,7.483 0.997,3.137 4.347,4.87 7.484,3.874 l 0.359,-0.116 c 3.13,-1.016 4.871,-4.385 3.855,-7.515 -0.817,-2.52 -3.139,-4.129 -5.647,-4.129 m 19.362,-18.104 c -2.813,0 -5.316,2.001 -5.85,4.867 l -0.064,0.331 c -0.636,3.229 1.466,6.362 4.695,6.998 3.232,0.633 6.362,-1.467 6.998,-4.695 l 0.086,-0.448 c 0.603,-3.236 -1.53,-6.347 -4.765,-6.951 -0.369,-0.069 -0.737,-0.102 -1.1,-0.102 M 44.05,-46.876 c -1.364,0 -2.735,0.466 -3.855,1.418 -2.508,2.131 -2.814,5.891 -0.683,8.398 l 0.249,0.294 c 2.125,2.514 5.885,2.827 8.398,0.701 2.512,-2.126 2.825,-5.886 0.699,-8.398 l -0.264,-0.311 c -1.178,-1.388 -2.856,-2.102 -4.544,-2.102"
             style="fill:#ff8500;fill-opacity:1;fill-rule:nonzero;stroke:none"
             id="path136" /></g><g
           id="g138"
           transform="translate(502.0381,178.6185)"><path
             d="M 0,0 C -1.535,0 -3.07,0.59 -4.235,1.768 -6.55,4.106 -6.53,7.88 -4.191,10.194 l 0.282,0.28 c 2.338,2.314 6.11,2.297 8.427,-0.044 C 6.833,8.091 6.812,4.317 4.474,2.003 L 4.191,1.724 C 3.03,0.574 1.515,0 0,0"
             style="fill:#ff8500;fill-opacity:1;fill-rule:nonzero;stroke:none"
             id="path140" /></g></g></g></g></svg>
