<?xml version="1.0" encoding="UTF-8" standalone="no"?>
<!-- Created with Inkscape (http://www.inkscape.org/) -->

<svg
   version="1.1"
   id="svg2"
   xml:space="preserve"
   width="1429.1467"
   height="605.11865"
   viewBox="0 0 1429.1467 605.11865"
   sodipodi:docname="Logo_LIER-FYT_RVB.ai.svg"
   inkscape:version="1.1.1 (3bf5ae0d25, 2021-09-20)"
   xmlns:inkscape="http://www.inkscape.org/namespaces/inkscape"
   xmlns:sodipodi="http://sodipodi.sourceforge.net/DTD/sodipodi-0.dtd"
   xmlns="http://www.w3.org/2000/svg"
   xmlns:svg="http://www.w3.org/2000/svg"><defs
     id="defs6"><clipPath
       clipPathUnits="userSpaceOnUse"
       id="clipPath30"><path
         d="M 0,453.839 H 1071.863 V 0 H 0 Z"
         id="path28" /></clipPath></defs><sodipodi:namedview
     id="namedview4"
     pagecolor="#ffffff"
     bordercolor="#666666"
     borderopacity="1.0"
     inkscape:pageshadow="2"
     inkscape:pageopacity="0.0"
     inkscape:pagecheckerboard="0"
     showgrid="false"
     inkscape:zoom="0.97680663"
     inkscape:cx="714.06149"
     inkscape:cy="302.51637"
     inkscape:window-width="1920"
     inkscape:window-height="996"
     inkscape:window-x="0"
     inkscape:window-y="0"
     inkscape:window-maximized="1"
     inkscape:current-layer="g8" /><g
     id="g8"
     inkscape:groupmode="layer"
     inkscape:label="Logo_LIER-FYT_RVB"
     transform="matrix(1.3333333,0,0,-1.3333333,0,605.11867)"><path
       d="M 946.517,101.698 H 573.402 v 51.917 h 373.115 z"
       style="fill:#ff8500;fill-opacity:1;fill-rule:nonzero;stroke:none"
       id="path10" /><g
       id="g12"
       transform="translate(103.5688,345.9177)"><path
         d="m 0,0 h 24.265 v -89.837 h 48.522 v -24.261 H 0 Z"
         style="fill:#203649;fill-opacity:1;fill-rule:nonzero;stroke:none"
         id="path14" /></g><g
       id="g16"
       transform="translate(209.8589,231.8196)"><path
         d="M 0,0 V 24.261 H 24.265 V 89.837 H 0 v 24.261 H 72.787 V 89.837 H 48.526 V 24.261 H 72.787 V 0 Z"
         style="fill:#203649;fill-opacity:1;fill-rule:nonzero;stroke:none"
         id="path18" /></g><g
       id="g20"
       transform="translate(316.7998,345.9177)"><path
         d="M 0,0 H 72.784 V -24.261 H 24.261 V -44.81 H 72.784 V -69.071 H 24.261 v -20.766 h 48.523 v -24.261 H 0 Z"
         style="fill:#203649;fill-opacity:1;fill-rule:nonzero;stroke:none"
         id="path22" /></g><g
       id="g24"><g
         id="g26"
         clip-path="url(#clipPath30)"><g
           id="g32"
           transform="translate(501.6611,302.2019)"><path
             d="m 0,0 c 0,10.71 -8.74,19.455 -19.451,19.455 h -31.694 v -38.91 h 31.694 C -8.74,-19.455 0,-10.711 0,0 M 33.443,-70.382 H -0.656 l -26.662,26.666 H -51.145 V -70.382 H -75.406 V 43.716 h 55.955 C 4.593,43.716 24.265,24.044 24.265,0 c 0,-16.394 -9.399,-30.821 -22.95,-38.25 z"
             style="fill:#203649;fill-opacity:1;fill-rule:nonzero;stroke:none"
             id="path34" /></g><g
           id="g36"
           transform="translate(115.7617,101.5627)"><path
             d="m 0,0 c -3.291,0 -5.958,2.668 -5.958,5.959 v 0.198 c 0,3.291 2.667,5.959 5.958,5.959 3.291,0 5.958,-2.668 5.958,-5.959 V 5.959 C 5.958,2.668 3.291,0 0,0"
             style="fill:#ff8500;fill-opacity:1;fill-rule:nonzero;stroke:none"
             id="path38" /></g><g
           id="g40"
           transform="translate(115.7617,161.887)"><path
             d="m 0,0 c -3.291,0 -5.958,2.668 -5.958,5.959 v 0.427 c 0,3.291 2.667,5.959 5.958,5.959 3.291,0 5.958,-2.668 5.958,-5.959 V 5.959 C 5.958,2.668 3.291,0 0,0 m 0,-30.276 c -3.291,0 -5.958,2.668 -5.958,5.959 v 0.426 c 0,3.291 2.667,5.959 5.958,5.959 3.291,0 5.958,-2.668 5.958,-5.959 v -0.426 c 0,-3.291 -2.667,-5.959 -5.958,-5.959"
             style="fill:#ff8500;fill-opacity:1;fill-rule:nonzero;stroke:none"
             id="path42" /></g><g
           id="g44"
           transform="translate(115.7617,192.1633)"><path
             d="m 0,0 c -3.291,0 -5.958,2.668 -5.958,5.959 v 0.199 c 0,3.291 2.667,5.959 5.958,5.959 H 0.199 C 3.49,12.117 6.157,9.449 6.157,6.158 6.157,4.465 5.451,2.937 4.317,1.852 3.231,0.711 1.699,0 0,0"
             style="fill:#ff8500;fill-opacity:1;fill-rule:nonzero;stroke:none"
             id="path46" /></g><g
           id="g48"
           transform="translate(143.0947,192.3625)"><path
             d="m 0,0 h -0.382 c -3.291,0 -5.959,2.668 -5.959,5.959 0,3.291 2.668,5.959 5.959,5.959 H 0 C 3.291,11.918 5.958,9.25 5.958,5.959 5.958,2.668 3.291,0 0,0"
             style="fill:#ff8500;fill-opacity:1;fill-rule:nonzero;stroke:none"
             id="path50" /></g><g
           id="g52"
           transform="translate(170.0449,192.3625)"><path
             d="m 0,0 h -0.199 c -3.291,0 -5.958,2.668 -5.958,5.959 0,3.291 2.667,5.959 5.958,5.959 H 0 C 3.291,11.918 5.958,9.25 5.958,5.959 5.958,2.668 3.291,0 0,0"
             style="fill:#ff8500;fill-opacity:1;fill-rule:nonzero;stroke:none"
             id="path54" /></g><g
           id="g56"
           transform="translate(383.0781,192.3625)"><path
             d="m 0,0 h -0.199 c -3.291,0 -5.958,2.668 -5.958,5.959 0,3.291 2.667,5.959 5.958,5.959 H 0 C 3.291,11.918 5.958,9.25 5.958,5.959 5.958,2.668 3.291,0 0,0"
             style="fill:#ff8500;fill-opacity:1;fill-rule:nonzero;stroke:none"
             id="path58" /></g><g
           id="g60"
           transform="translate(356.1274,192.3625)"><path
             d="m 0,0 h -0.382 c -3.291,0 -5.959,2.668 -5.959,5.959 0,3.291 2.668,5.959 5.959,5.959 H 0 C 3.291,11.918 5.958,9.25 5.958,5.959 5.958,2.668 3.291,0 0,0"
             style="fill:#ff8500;fill-opacity:1;fill-rule:nonzero;stroke:none"
             id="path62" /></g><g
           id="g64"
           transform="translate(328.7949,192.1633)"><path
             d="m 0,0 c -3.291,0 -5.958,2.668 -5.958,5.959 v 0.199 c 0,3.291 2.667,5.959 5.958,5.959 H 0.199 C 3.49,12.117 6.157,9.449 6.157,6.158 6.157,4.465 5.451,2.937 4.317,1.852 3.231,0.711 1.699,0 0,0"
             style="fill:#ff8500;fill-opacity:1;fill-rule:nonzero;stroke:none"
             id="path66" /></g><g
           id="g68"
           transform="translate(328.7949,161.887)"><path
             d="m 0,0 c -3.291,0 -5.958,2.668 -5.958,5.959 v 0.427 c 0,3.291 2.667,5.959 5.958,5.959 3.291,0 5.958,-2.668 5.958,-5.959 V 5.959 C 5.958,2.668 3.291,0 0,0 m 0,-30.276 c -3.291,0 -5.958,2.668 -5.958,5.959 v 0.426 c 0,3.291 2.667,5.959 5.958,5.959 3.291,0 5.958,-2.668 5.958,-5.959 v -0.426 c 0,-3.291 -2.667,-5.959 -5.958,-5.959"
             style="fill:#ff8500;fill-opacity:1;fill-rule:nonzero;stroke:none"
             id="path70" /></g><g
           id="g72"
           transform="translate(328.9937,101.5627)"><path
             d="M 0,0 H -0.199 C -3.49,0 -6.157,2.668 -6.157,5.959 v 0.198 c 0,3.291 2.667,5.959 5.958,5.959 1.694,0 3.222,-0.707 4.306,-1.841 C 5.248,9.19 5.958,7.657 5.958,5.959 5.958,2.668 3.291,0 0,0"
             style="fill:#ff8500;fill-opacity:1;fill-rule:nonzero;stroke:none"
             id="path74" /></g><g
           id="g76"
           transform="translate(356.1274,101.5627)"><path
             d="m 0,0 h -0.382 c -3.291,0 -5.959,2.668 -5.959,5.959 0,3.291 2.668,5.959 5.959,5.959 H 0 C 3.291,11.918 5.958,9.25 5.958,5.959 5.958,2.668 3.291,0 0,0"
             style="fill:#ff8500;fill-opacity:1;fill-rule:nonzero;stroke:none"
             id="path78" /></g><g
           id="g80"
           transform="translate(383.0781,101.5627)"><path
             d="m 0,0 h -0.199 c -3.291,0 -5.958,2.668 -5.958,5.959 0,3.291 2.667,5.959 5.958,5.959 H 0 C 3.291,11.918 5.958,9.25 5.958,5.959 5.958,2.668 3.291,0 0,0"
             style="fill:#ff8500;fill-opacity:1;fill-rule:nonzero;stroke:none"
             id="path82" /></g><g
           id="g84"
           transform="translate(437.0332,192.1633)"><path
             d="m 0,0 c -3.291,0 -5.958,2.668 -5.958,5.959 v 0.199 c 0,3.291 2.667,5.959 5.958,5.959 3.291,0 5.958,-2.668 5.958,-5.959 V 5.959 C 5.958,2.668 3.291,0 0,0"
             style="fill:#ff8500;fill-opacity:1;fill-rule:nonzero;stroke:none"
             id="path86" /></g><g
           id="g88"
           transform="translate(437.0332,161.887)"><path
             d="m 0,0 c -3.291,0 -5.958,2.668 -5.958,5.959 v 0.427 c 0,3.291 2.667,5.959 5.958,5.959 3.291,0 5.958,-2.668 5.958,-5.959 V 5.959 C 5.958,2.668 3.291,0 0,0 m 0,-30.276 c -3.291,0 -5.958,2.668 -5.958,5.959 v 0.426 c 0,3.291 2.667,5.959 5.958,5.959 3.291,0 5.958,-2.668 5.958,-5.959 v -0.426 c 0,-3.291 -2.667,-5.959 -5.958,-5.959"
             style="fill:#ff8500;fill-opacity:1;fill-rule:nonzero;stroke:none"
             id="path90" /></g><g
           id="g92"
           transform="translate(437.2319,101.5627)"><path
             d="M 0,0 H -0.199 C -3.49,0 -6.157,2.668 -6.157,5.959 v 0.198 c 0,3.291 2.667,5.959 5.958,5.959 1.694,0 3.222,-0.707 4.306,-1.841 C 5.248,9.19 5.958,7.657 5.958,5.959 5.958,2.668 3.291,0 0,0"
             style="fill:#ff8500;fill-opacity:1;fill-rule:nonzero;stroke:none"
             id="path94" /></g><g
           id="g96"
           transform="translate(464.3662,101.5627)"><path
             d="m 0,0 h -0.382 c -3.291,0 -5.959,2.668 -5.959,5.959 0,3.291 2.668,5.959 5.959,5.959 H 0 C 3.291,11.918 5.958,9.25 5.958,5.959 5.958,2.668 3.291,0 0,0"
             style="fill:#ff8500;fill-opacity:1;fill-rule:nonzero;stroke:none"
             id="path98" /></g><g
           id="g100"
           transform="translate(491.3164,101.5627)"><path
             d="m 0,0 h -0.199 c -3.291,0 -5.958,2.668 -5.958,5.959 0,3.291 2.667,5.959 5.958,5.959 H 0 C 3.291,11.918 5.958,9.25 5.958,5.959 5.958,2.668 3.291,0 0,0"
             style="fill:#ff8500;fill-opacity:1;fill-rule:nonzero;stroke:none"
             id="path102" /></g><g
           id="g104"
           transform="translate(273.394,192.3625)"><path
             d="m 0,0 h -0.198 c -3.291,0 -5.959,2.668 -5.959,5.959 0,3.291 2.668,5.959 5.959,5.959 H 0 C 3.291,11.918 5.958,9.25 5.958,5.959 5.958,2.668 3.291,0 0,0"
             style="fill:#ff8500;fill-opacity:1;fill-rule:nonzero;stroke:none"
             id="path106" /></g><g
           id="g108"
           transform="translate(246.2524,192.1633)"><path
             d="m 0,0 c -3.291,0 -5.958,2.668 -5.958,5.959 v 0.199 c 0,3.291 2.667,5.959 5.958,5.959 H 0.199 C 3.49,12.117 6.157,9.449 6.157,6.158 6.157,4.465 5.451,2.937 4.317,1.852 3.231,0.711 1.699,0 0,0"
             style="fill:#ff8500;fill-opacity:1;fill-rule:nonzero;stroke:none"
             id="path110" /></g><g
           id="g112"
           transform="translate(246.2524,161.887)"><path
             d="m 0,0 c -3.291,0 -5.958,2.668 -5.958,5.959 v 0.427 c 0,3.291 2.667,5.959 5.958,5.959 3.291,0 5.958,-2.668 5.958,-5.959 V 5.959 C 5.958,2.668 3.291,0 0,0 m 0,-30.276 c -3.291,0 -5.958,2.668 -5.958,5.959 v 0.426 c 0,3.291 2.667,5.959 5.958,5.959 3.291,0 5.958,-2.668 5.958,-5.959 v -0.426 c 0,-3.291 -2.667,-5.959 -5.958,-5.959"
             style="fill:#ff8500;fill-opacity:1;fill-rule:nonzero;stroke:none"
             id="path114" /></g><g
           id="g116"
           transform="translate(246.4512,101.5627)"><path
             d="M 0,0 H -0.199 C -3.49,0 -6.157,2.668 -6.157,5.959 v 0.198 c 0,3.291 2.667,5.959 5.958,5.959 1.694,0 3.222,-0.707 4.306,-1.841 C 5.248,9.19 5.958,7.657 5.958,5.959 5.958,2.668 3.291,0 0,0"
             style="fill:#ff8500;fill-opacity:1;fill-rule:nonzero;stroke:none"
             id="path118" /></g><g
           id="g120"
           transform="translate(273.394,101.5627)"><path
             d="m 0,0 h -0.198 c -3.291,0 -5.959,2.668 -5.959,5.959 0,3.291 2.668,5.959 5.959,5.959 H 0 C 3.291,11.918 5.958,9.25 5.958,5.959 5.958,2.668 3.291,0 0,0"
             style="fill:#ff8500;fill-opacity:1;fill-rule:nonzero;stroke:none"
             id="path122" /></g><g
           id="g124"
           transform="translate(219.6416,101.5627)"><path
             d="m 0,0 h -0.397 c -3.291,0 -5.959,2.668 -5.959,5.959 0,3.291 2.668,5.959 5.959,5.959 H 0 C 3.291,11.918 5.958,9.25 5.958,5.959 5.958,2.668 3.291,0 0,0"
             style="fill:#ff8500;fill-opacity:1;fill-rule:nonzero;stroke:none"
             id="path126" /></g><g
           id="g128"
           transform="translate(355.2134,146.7268)"><path
             d="m 0,0 h -0.397 c -3.291,0 -5.959,2.668 -5.959,5.959 0,3.291 2.668,5.959 5.959,5.959 H 0 C 3.291,11.918 5.958,9.25 5.958,5.959 5.958,2.668 3.291,0 0,0 m 28.204,0 h -0.397 c -3.291,0 -5.959,2.668 -5.959,5.959 0,3.291 2.668,5.959 5.959,5.959 h 0.397 c 3.291,0 5.958,-2.668 5.958,-5.959 C 34.162,2.668 31.495,0 28.204,0"
             style="fill:#ff8500;fill-opacity:1;fill-rule:nonzero;stroke:none"
             id="path130" /></g><g
           id="g132"
           transform="translate(219.6416,192.3625)"><path
             d="m 0,0 h -0.397 c -3.291,0 -5.959,2.668 -5.959,5.959 0,3.291 2.668,5.959 5.959,5.959 H 0 C 3.291,11.918 5.958,9.25 5.958,5.959 5.958,2.668 3.291,0 0,0"
             style="fill:#ff8500;fill-opacity:1;fill-rule:nonzero;stroke:none"
             id="path134" /></g><g
           id="g136"
           transform="translate(464.1709,163.6624)"><path
             d="m 0,0 c -3.195,0 -5.839,2.533 -5.951,5.752 -0.114,3.289 2.459,6.048 5.748,6.162 L 0.2,11.928 C 3.494,12.021 6.246,9.465 6.358,6.175 6.47,2.887 3.895,0.13 0.605,0.018 L 0.21,0.004 C 0.141,0.002 0.07,0 0,0 m 28.396,-1.81 c -0.606,0 -1.223,0.094 -1.832,0.291 l -0.345,0.112 c -3.136,0.997 -4.87,4.347 -3.874,7.483 0.997,3.137 4.347,4.87 7.484,3.874 l 0.359,-0.116 c 3.13,-1.016 4.871,-4.385 3.855,-7.515 -0.817,-2.52 -3.139,-4.129 -5.647,-4.129 m 19.362,-18.104 c -2.813,0 -5.316,2.001 -5.85,4.867 l -0.064,0.331 c -0.636,3.229 1.466,6.362 4.695,6.998 3.232,0.633 6.362,-1.467 6.998,-4.695 l 0.086,-0.448 c 0.603,-3.236 -1.53,-6.347 -4.765,-6.951 -0.369,-0.069 -0.737,-0.102 -1.1,-0.102 M 44.05,-46.876 c -1.364,0 -2.735,0.466 -3.855,1.418 -2.508,2.131 -2.814,5.891 -0.683,8.398 l 0.249,0.294 c 2.125,2.514 5.885,2.827 8.398,0.701 2.512,-2.126 2.825,-5.886 0.699,-8.398 l -0.264,-0.311 c -1.178,-1.388 -2.856,-2.102 -4.544,-2.102"
             style="fill:#ff8500;fill-opacity:1;fill-rule:nonzero;stroke:none"
             id="path138" /></g><g
           id="g140"
           transform="translate(506.9287,192.0833)"><path
             d="M 0,0 C -1.535,0 -3.07,0.59 -4.235,1.768 -6.55,4.106 -6.53,7.88 -4.191,10.194 l 0.282,0.28 c 2.338,2.314 6.11,2.297 8.427,-0.044 C 6.833,8.091 6.812,4.317 4.474,2.003 L 4.191,1.724 C 3.03,0.574 1.515,0 0,0"
             style="fill:#ff8500;fill-opacity:1;fill-rule:nonzero;stroke:none"
             id="path142" /></g><g
           id="g144"
           transform="translate(601.229,322.6062)"><path
             d="m 0,0 v -3.468 h -15.215 v 26.701 h 3.73 V 0 Z"
             style="fill:#203649;fill-opacity:1;fill-rule:nonzero;stroke:none"
             id="path146" /></g><g
           id="g148"
           transform="translate(612.4204,327.9016)"><path
             d="m 0,0 c -1.678,0 -2.61,-1.007 -2.61,-2.685 0,-2.051 1.454,-2.909 3.319,-2.909 4.288,0 5.929,1.641 5.929,4.065 V 0 Z M 7.645,-6.489 C 5.444,-8.465 3.617,-9.062 0.261,-9.062 c -3.729,0 -6.601,2.722 -6.601,6.452 0,2.797 1.977,6.078 6.228,6.078 h 6.75 v 1.977 c 0,2.163 -1.156,3.58 -3.319,3.58 H 1.044 c -1.566,0 -3.021,-0.858 -3.767,-2.163 l -3.17,1.492 c 1.269,2.461 3.954,4.139 6.937,4.139 h 2.163 c 4.177,0 7.16,-2.76 7.16,-7.048 V -8.764 H 8.204 Z"
             style="fill:#203649;fill-opacity:1;fill-rule:nonzero;stroke:none"
             id="path150" /></g><g
           id="g152"
           transform="translate(639.0513,322.3079)"><path
             d="m 0,0 c 2.237,0 3.804,1.827 3.804,4.065 v 6.489 c 0,2.237 -1.567,4.065 -3.804,4.065 h -1.641 c -2.2,0 -3.803,-1.753 -3.803,-3.916 V 4.065 C -5.444,1.827 -3.879,0 -1.641,0 Z m -9.174,23.531 h 3.73 v -6.712 c 0.968,0.783 2.237,1.268 3.803,1.268 H 0 c 4.14,0 7.533,-3.394 7.533,-7.533 V 4.065 C 7.533,-0.075 4.14,-3.468 0,-3.468 h -1.641 c -2.163,0 -3.803,0.932 -4.848,2.386 L -7.011,-3.17 h -2.163 z"
             style="fill:#203649;fill-opacity:1;fill-rule:nonzero;stroke:none"
             id="path154" /></g><g
           id="g156"
           transform="translate(662.4741,322.3079)"><path
             d="m 0,0 c 2.237,0 3.804,1.827 3.804,4.065 v 6.489 c 0,2.237 -1.567,4.065 -3.804,4.065 h -1.641 c -2.238,0 -3.803,-1.828 -3.803,-4.065 V 4.065 C -5.444,1.827 -3.879,0 -1.641,0 Z m -1.641,-3.468 c -4.139,0 -7.533,3.393 -7.533,7.533 v 6.489 c 0,4.139 3.394,7.533 7.533,7.533 H 0 c 4.14,0 7.533,-3.394 7.533,-7.533 V 4.065 C 7.533,-0.075 4.14,-3.468 0,-3.468 Z"
             style="fill:#203649;fill-opacity:1;fill-rule:nonzero;stroke:none"
             id="path158" /></g><g
           id="g160"
           transform="translate(677.0962,319.1379)"><path
             d="M 0,0 V 20.958 H 2.163 L 2.685,18.87 c 1.044,1.454 2.685,2.387 4.848,2.387 2.984,0 5.519,-1.678 6.787,-4.14 l -3.17,-1.492 c -0.709,1.269 -2.051,2.164 -3.617,2.164 -2.238,0 -3.804,-1.828 -3.804,-4.065 L 3.729,0 Z"
             style="fill:#203649;fill-opacity:1;fill-rule:nonzero;stroke:none"
             id="path162" /></g><g
           id="g164"
           transform="translate(701.1157,327.9016)"><path
             d="m 0,0 c -1.678,0 -2.61,-1.007 -2.61,-2.685 0,-2.051 1.454,-2.909 3.319,-2.909 4.288,0 5.929,1.641 5.929,4.065 V 0 Z M 7.645,-6.489 C 5.444,-8.465 3.617,-9.062 0.261,-9.062 c -3.729,0 -6.601,2.722 -6.601,6.452 0,2.797 1.977,6.078 6.228,6.078 h 6.75 v 1.977 c 0,2.163 -1.156,3.58 -3.319,3.58 H 1.044 c -1.566,0 -3.021,-0.858 -3.767,-2.163 l -3.17,1.492 c 1.269,2.461 3.954,4.139 6.937,4.139 h 2.163 c 4.177,0 7.16,-2.76 7.16,-7.048 V -8.764 H 8.204 Z"
             style="fill:#203649;fill-opacity:1;fill-rule:nonzero;stroke:none"
             id="path166" /></g><g
           id="g168"
           transform="translate(732.5571,322.1213)"><path
             d="m 0,0 c -1.007,-1.977 -3.058,-3.282 -5.444,-3.282 -3.394,0 -6.117,2.722 -6.117,6.116 V 12.94 h -3.169 v 3.469 h 3.169 v 7.309 h 3.73 v -7.309 h 6.824 V 12.94 H -7.831 V 2.834 c 0,-1.454 0.932,-2.647 2.387,-2.647 1.007,0 1.752,0.559 2.125,1.379 z"
             style="fill:#203649;fill-opacity:1;fill-rule:nonzero;stroke:none"
             id="path170" /></g><g
           id="g172"
           transform="translate(746.9546,322.3079)"><path
             d="m 0,0 c 2.237,0 3.804,1.827 3.804,4.065 v 6.489 c 0,2.237 -1.567,4.065 -3.804,4.065 h -1.641 c -2.238,0 -3.803,-1.828 -3.803,-4.065 V 4.065 C -5.444,1.827 -3.879,0 -1.641,0 Z m -1.641,-3.468 c -4.139,0 -7.533,3.393 -7.533,7.533 v 6.489 c 0,4.139 3.394,7.533 7.533,7.533 H 0 c 4.14,0 7.533,-3.394 7.533,-7.533 V 4.065 C 7.533,-0.075 4.14,-3.468 0,-3.468 Z"
             style="fill:#203649;fill-opacity:1;fill-rule:nonzero;stroke:none"
             id="path174" /></g><path
           d="m 764.785,348.301 h 5.146 v -5.221 h -5.146 z m -3.58,-8.205 h 8.726 v -17.49 h 5.37 v -3.468 h -14.469 v 3.468 h 5.37 v 14.022 h -4.997 z"
           style="fill:#203649;fill-opacity:1;fill-rule:nonzero;stroke:none"
           id="path176" /><g
           id="g178"
           transform="translate(781.272,319.1379)"><path
             d="M 0,0 V 20.958 H 2.163 L 2.685,18.87 c 1.044,1.454 2.685,2.387 4.848,2.387 2.984,0 5.519,-1.678 6.787,-4.14 l -3.17,-1.492 c -0.709,1.269 -2.051,2.164 -3.617,2.164 -2.238,0 -3.804,-1.828 -3.804,-4.065 L 3.729,0 Z"
             style="fill:#203649;fill-opacity:1;fill-rule:nonzero;stroke:none"
             id="path180" /></g><g
           id="g182"
           transform="translate(812.3022,332.8616)"><path
             d="m 0,0 c 0,2.237 -1.566,4.065 -3.804,4.065 h -1.64 C -7.682,4.065 -9.248,2.237 -9.248,0 V -1.492 H 0 Z m 3.356,-9.882 c -1.267,-2.462 -3.803,-4.14 -6.787,-4.14 h -2.013 c -4.14,0 -7.534,3.394 -7.534,7.533 V 0 c 0,4.14 3.394,7.533 7.534,7.533 h 1.64 C 0.336,7.533 3.729,4.14 3.729,0 V -4.96 H -9.248 v -1.529 c 0,-2.238 1.566,-4.065 3.804,-4.065 h 2.013 c 1.567,0 2.91,0.895 3.618,2.163 z"
             style="fill:#203649;fill-opacity:1;fill-rule:nonzero;stroke:none"
             id="path184" /></g><path
           d="m 589.221,298.525 h 5.146 v -5.221 h -5.146 z m -3.58,-8.204 h 8.727 V 272.83 h 5.37 v -3.468 h -14.47 v 3.468 h 5.37 v 14.022 h -4.997 z"
           style="fill:#203649;fill-opacity:1;fill-rule:nonzero;stroke:none"
           id="path186" /><g
           id="g188"
           transform="translate(618.686,269.3621)"><path
             d="m 0,0 v 13.724 c 0,2.237 -1.566,4.065 -3.804,4.065 h -1.64 c -2.239,0 -3.805,-1.828 -3.805,-4.065 V 0 h -3.729 v 20.958 h 2.164 l 0.521,-2.088 c 1.044,1.454 2.686,2.387 4.849,2.387 h 1.64 c 4.14,0 7.533,-3.394 7.533,-7.533 L 3.729,0 Z"
             style="fill:#203649;fill-opacity:1;fill-rule:nonzero;stroke:none"
             id="path190" /></g><g
           id="g192"
           transform="translate(643.4888,272.3455)"><path
             d="m 0,0 c -1.007,-1.977 -3.058,-3.282 -5.444,-3.282 -3.394,0 -6.117,2.722 -6.117,6.116 V 12.94 h -3.169 v 3.469 h 3.169 v 7.309 h 3.73 v -7.309 h 6.824 V 12.94 H -7.831 V 2.834 c 0,-1.454 0.932,-2.647 2.387,-2.647 1.007,0 1.752,0.559 2.125,1.379 z"
             style="fill:#203649;fill-opacity:1;fill-rule:nonzero;stroke:none"
             id="path194" /></g><g
           id="g196"
           transform="translate(661.1313,283.0857)"><path
             d="m 0,0 c 0,2.238 -1.566,4.065 -3.804,4.065 h -1.64 C -7.683,4.065 -9.248,2.238 -9.248,0 V -1.492 H 0 Z m 3.356,-9.882 c -1.267,-2.462 -3.803,-4.14 -6.787,-4.14 h -2.013 c -4.14,0 -7.534,3.394 -7.534,7.533 V 0 c 0,4.14 3.394,7.533 7.534,7.533 h 1.64 C 0.336,7.533 3.729,4.14 3.729,0 V -4.96 H -9.248 v -1.529 c 0,-2.238 1.565,-4.065 3.804,-4.065 h 2.013 c 1.567,0 2.909,0.895 3.618,2.163 z"
             style="fill:#203649;fill-opacity:1;fill-rule:nonzero;stroke:none"
             id="path198" /></g><g
           id="g200"
           transform="translate(671.5767,269.3621)"><path
             d="M 0,0 V 20.958 H 2.163 L 2.685,18.87 c 1.044,1.454 2.685,2.387 4.848,2.387 2.984,0 5.519,-1.678 6.787,-4.14 l -3.17,-1.492 c -0.709,1.269 -2.051,2.164 -3.617,2.164 -2.238,0 -3.804,-1.828 -3.804,-4.065 L 3.729,0 Z"
             style="fill:#203649;fill-opacity:1;fill-rule:nonzero;stroke:none"
             id="path202" /></g><g
           id="g204"
           transform="translate(697.1636,272.532)"><path
             d="m 0,0 h 1.641 c 2.163,0 3.803,1.715 3.803,3.878 v 6.825 c 0,2.163 -1.64,3.916 -3.803,3.916 H 0 c -2.238,0 -3.804,-1.827 -3.804,-4.065 V 4.065 C -3.804,1.827 -2.238,0 0,0 M 9.174,-3.17 H 7.011 L 6.488,-1.082 C 5.407,-2.536 3.767,-3.468 1.641,-3.468 H 0 c -4.14,0 -7.533,3.393 -7.533,7.533 v 6.489 c 0,4.139 3.393,7.533 7.533,7.533 h 1.641 c 1.529,0 2.796,-0.485 3.803,-1.268 v 6.713 h 3.73 z"
             style="fill:#203649;fill-opacity:1;fill-rule:nonzero;stroke:none"
             id="path206" /></g><path
           d="m 717.006,298.525 h 5.146 v -5.221 h -5.146 z m -3.58,-8.204 h 8.727 V 272.83 h 5.37 v -3.468 h -14.47 v 3.468 h 5.37 v 14.022 h -4.997 z"
           style="fill:#203649;fill-opacity:1;fill-rule:nonzero;stroke:none"
           id="path208" /><g
           id="g210"
           transform="translate(735.2085,274.6951)"><path
             d="m 0,0 c 1.007,-1.828 2.686,-2.163 3.58,-2.163 h 1.716 c 2.237,0 3.767,0.82 3.767,2.871 0,1.604 -0.597,2.126 -4.7,2.76 -4.512,0.709 -7.57,2.126 -7.57,6.228 0,4.102 3.431,6.228 7.384,6.228 h 1.417 c 2.349,0 5.259,-1.119 6.825,-4.14 L 9.137,10.255 C 8.242,11.822 6.824,12.456 5.594,12.456 H 4.289 c -2.238,0 -3.767,-0.747 -3.767,-2.797 0,-1.492 0.746,-2.163 4.401,-2.76 5.668,-0.932 7.868,-2.536 7.868,-6.228 0,-4.102 -3.431,-6.302 -7.384,-6.302 H 3.58 c -3.729,0 -6.004,2.461 -6.824,4.139 z"
             style="fill:#203649;fill-opacity:1;fill-rule:nonzero;stroke:none"
             id="path212" /></g><g
           id="g214"
           transform="translate(770.23,273.2034)"><path
             d="m 0,0 c -1.269,-2.461 -3.804,-4.14 -6.787,-4.14 h -1.567 c -4.139,0 -7.533,3.394 -7.533,7.534 v 6.488 c 0,4.14 3.394,7.534 7.533,7.534 h 1.567 c 2.983,0 5.518,-1.679 6.787,-4.14 l -3.17,-1.492 c -0.709,1.268 -2.051,2.163 -3.617,2.163 h -1.567 c -2.238,0 -3.803,-1.827 -3.803,-4.065 V 3.394 c 0,-2.238 1.565,-4.065 3.803,-4.065 h 1.567 c 1.566,0 2.908,0.895 3.617,2.163 z"
             style="fill:#203649;fill-opacity:1;fill-rule:nonzero;stroke:none"
             id="path216" /></g><path
           d="m 779.781,298.525 h 5.146 v -5.221 h -5.146 z m -3.58,-8.204 h 8.726 V 272.83 h 5.37 v -3.468 h -14.469 v 3.468 h 5.37 v 14.022 h -4.997 z"
           style="fill:#203649;fill-opacity:1;fill-rule:nonzero;stroke:none"
           id="path218" /><g
           id="g220"
           transform="translate(805.4409,272.532)"><path
             d="m 0,0 c 2.237,0 3.804,1.827 3.804,4.065 v 6.489 c 0,2.238 -1.567,4.065 -3.804,4.065 h -1.641 c -2.2,0 -3.804,-1.753 -3.804,-3.916 V 4.065 C -5.445,1.827 -3.879,0 -1.641,0 Z m -9.174,-11.001 v 28.79 h 2.163 L -6.489,15.7 c 1.044,1.454 2.685,2.387 4.848,2.387 H 0 c 4.14,0 7.533,-3.394 7.533,-7.533 V 4.065 C 7.533,-0.075 4.14,-3.468 0,-3.468 h -1.641 c -1.566,0 -2.835,0.447 -3.804,1.268 v -8.801 z"
             style="fill:#203649;fill-opacity:1;fill-rule:nonzero;stroke:none"
             id="path222" /></g><g
           id="g224"
           transform="translate(818.1987,296.0637)"><path
             d="m 0,0 h 8.727 v -23.233 h 5.37 v -3.469 h -14.47 v 3.469 h 5.37 V -3.468 H 0 Z"
             style="fill:#203649;fill-opacity:1;fill-rule:nonzero;stroke:none"
             id="path226" /></g><path
           d="m 840.914,298.525 h 5.146 v -5.221 h -5.146 z m -3.581,-8.204 h 8.727 V 272.83 h 5.37 v -3.468 h -14.47 v 3.468 h 5.371 v 14.022 h -4.998 z"
           style="fill:#203649;fill-opacity:1;fill-rule:nonzero;stroke:none"
           id="path228" /><g
           id="g230"
           transform="translate(870.3774,269.3621)"><path
             d="m 0,0 v 13.724 c 0,2.237 -1.566,4.065 -3.804,4.065 h -1.64 c -2.239,0 -3.805,-1.828 -3.805,-4.065 V 0 h -3.729 v 20.958 h 2.164 l 0.521,-2.088 c 1.044,1.454 2.686,2.387 4.849,2.387 h 1.64 c 4.14,0 7.533,-3.394 7.533,-7.533 L 3.729,0 Z"
             style="fill:#203649;fill-opacity:1;fill-rule:nonzero;stroke:none"
             id="path232" /></g><g
           id="g234"
           transform="translate(886.4165,278.1257)"><path
             d="m 0,0 c -1.678,0 -2.61,-1.007 -2.61,-2.685 0,-2.051 1.454,-2.909 3.319,-2.909 4.288,0 5.929,1.641 5.929,4.065 V 0 Z M 7.645,-6.489 C 5.444,-8.465 3.617,-9.062 0.261,-9.062 c -3.729,0 -6.601,2.722 -6.601,6.452 0,2.797 1.977,6.078 6.228,6.078 h 6.75 v 1.977 c 0,2.163 -1.156,3.58 -3.319,3.58 H 1.044 c -1.566,0 -3.021,-0.858 -3.767,-2.163 l -3.17,1.492 c 1.269,2.461 3.954,4.139 6.937,4.139 h 2.163 c 4.177,0 7.16,-2.76 7.16,-7.048 V -8.764 H 8.204 Z"
             style="fill:#203649;fill-opacity:1;fill-rule:nonzero;stroke:none"
             id="path236" /></g><path
           d="m 906.894,298.525 h 5.146 v -5.221 h -5.146 z m -3.58,-8.204 h 8.727 V 272.83 h 5.37 v -3.468 h -14.47 v 3.468 h 5.37 v 14.022 h -4.997 z"
           style="fill:#203649;fill-opacity:1;fill-rule:nonzero;stroke:none"
           id="path238" /><g
           id="g240"
           transform="translate(923.3813,269.3621)"><path
             d="M 0,0 V 20.958 H 2.163 L 2.685,18.87 c 1.044,1.454 2.685,2.387 4.848,2.387 2.984,0 5.519,-1.678 6.787,-4.14 l -3.17,-1.492 c -0.709,1.269 -2.051,2.164 -3.617,2.164 -2.238,0 -3.804,-1.828 -3.804,-4.065 L 3.729,0 Z"
             style="fill:#203649;fill-opacity:1;fill-rule:nonzero;stroke:none"
             id="path242" /></g><g
           id="g244"
           transform="translate(954.4116,283.0857)"><path
             d="m 0,0 c 0,2.238 -1.566,4.065 -3.804,4.065 h -1.64 C -7.682,4.065 -9.248,2.238 -9.248,0 V -1.492 H 0 Z m 3.356,-9.882 c -1.267,-2.462 -3.803,-4.14 -6.787,-4.14 h -2.013 c -4.14,0 -7.534,3.394 -7.534,7.533 V 0 c 0,4.14 3.394,7.533 7.534,7.533 h 1.64 C 0.336,7.533 3.729,4.14 3.729,0 V -4.96 H -9.248 v -1.529 c 0,-2.238 1.566,-4.065 3.804,-4.065 h 2.013 c 1.567,0 2.91,0.895 3.618,2.163 z"
             style="fill:#203649;fill-opacity:1;fill-rule:nonzero;stroke:none"
             id="path246" /></g><g
           id="g248"
           transform="translate(593.1743,222.7561)"><path
             d="m 0,0 h 1.641 c 2.163,0 3.803,1.716 3.803,3.878 v 6.825 c 0,2.163 -1.64,3.916 -3.803,3.916 H 0 c -2.237,0 -3.804,-1.828 -3.804,-4.065 V 4.065 C -3.804,1.827 -2.237,0 0,0 M 9.174,-3.17 H 7.011 L 6.488,-1.081 C 5.407,-2.536 3.767,-3.468 1.641,-3.468 H 0 c -4.14,0 -7.533,3.394 -7.533,7.533 v 6.489 c 0,4.139 3.393,7.533 7.533,7.533 h 1.641 c 1.529,0 2.796,-0.485 3.803,-1.268 v 6.712 h 3.73 z"
             style="fill:#203649;fill-opacity:1;fill-rule:nonzero;stroke:none"
             id="path250" /></g><g
           id="g252"
           transform="translate(609.8101,236.4426)"><path
             d="M 0,0 C 1.566,1.417 2.088,2.499 2.088,4.251 H 0 V 9.845 H 5.594 V 4.549 c 0,-3.17 -1.454,-5.295 -3.617,-6.824 z"
             style="fill:#203649;fill-opacity:1;fill-rule:nonzero;stroke:none"
             id="path254" /></g><g
           id="g256"
           transform="translate(628.98,244.7585)"><path
             d="m 0,0 5.072,6.116 h 5.034 L 3.729,0 Z m 6.489,-11.449 c 0,2.238 -1.566,4.065 -3.803,4.065 H 1.045 c -2.238,0 -3.804,-1.827 -3.804,-4.065 v -1.491 h 9.248 z m 3.357,-9.883 C 8.578,-23.792 6.042,-25.47 3.059,-25.47 H 1.045 c -4.14,0 -7.533,3.393 -7.533,7.533 v 6.488 c 0,4.14 3.393,7.533 7.533,7.533 h 1.641 c 4.139,0 7.533,-3.393 7.533,-7.533 v -4.96 H -2.759 v -1.528 c 0,-2.238 1.566,-4.065 3.804,-4.065 h 2.014 c 1.566,0 2.908,0.894 3.617,2.163 z"
             style="fill:#203649;fill-opacity:1;fill-rule:nonzero;stroke:none"
             id="path258" /></g><g
           id="g260"
           transform="translate(659.3403,222.5696)"><path
             d="m 0,0 c -1.007,-1.977 -3.058,-3.281 -5.444,-3.281 -3.394,0 -6.117,2.721 -6.117,6.115 V 12.94 h -3.169 v 3.469 h 3.169 v 7.309 h 3.73 v -7.309 h 6.824 V 12.94 H -7.831 V 2.834 c 0,-1.454 0.932,-2.647 2.387,-2.647 1.007,0 1.752,0.559 2.125,1.379 z"
             style="fill:#203649;fill-opacity:1;fill-rule:nonzero;stroke:none"
             id="path262" /></g><g
           id="g264"
           transform="translate(668.6675,226.821)"><path
             d="m 0,0 c 0,-2.238 1.565,-4.065 3.804,-4.065 h 1.64 c 2.238,0 3.804,1.827 3.804,4.065 v 13.724 h 3.73 V -7.235 h -2.164 l -0.522,2.089 C 9.211,-6.601 7.57,-7.533 5.444,-7.533 h -1.64 c -4.14,0 -7.533,3.394 -7.533,7.533 V 13.724 H 0 Z"
             style="fill:#203649;fill-opacity:1;fill-rule:nonzero;stroke:none"
             id="path266" /></g><g
           id="g268"
           transform="translate(696.2671,222.7561)"><path
             d="m 0,0 h 1.641 c 2.163,0 3.803,1.716 3.803,3.878 v 6.825 c 0,2.163 -1.64,3.916 -3.803,3.916 H 0 c -2.238,0 -3.804,-1.828 -3.804,-4.065 V 4.065 C -3.804,1.827 -2.238,0 0,0 M 9.174,-3.17 H 7.011 L 6.488,-1.081 C 5.407,-2.536 3.767,-3.468 1.641,-3.468 H 0 c -4.14,0 -7.533,3.394 -7.533,7.533 v 6.489 c 0,4.139 3.393,7.533 7.533,7.533 h 1.641 c 1.529,0 2.796,-0.485 3.803,-1.268 v 6.712 h 3.73 z"
             style="fill:#203649;fill-opacity:1;fill-rule:nonzero;stroke:none"
             id="path270" /></g><g
           id="g272"
           transform="translate(725.5083,233.3098)"><path
             d="m 0,0 c 0,2.237 -1.566,4.065 -3.804,4.065 h -1.64 C -7.683,4.065 -9.248,2.237 -9.248,0 V -1.492 H 0 Z m 3.356,-9.883 c -1.267,-2.461 -3.803,-4.138 -6.787,-4.138 h -2.013 c -4.14,0 -7.534,3.393 -7.534,7.532 V 0 c 0,4.14 3.394,7.533 7.534,7.533 h 1.64 C 0.336,7.533 3.729,4.14 3.729,0 V -4.96 H -9.248 v -1.529 c 0,-2.238 1.565,-4.065 3.804,-4.065 h 2.013 c 1.567,0 2.909,0.895 3.618,2.163 z"
             style="fill:#203649;fill-opacity:1;fill-rule:nonzero;stroke:none"
             id="path274" /></g><g
           id="g276"
           transform="translate(738.4146,224.9192)"><path
             d="m 0,0 c 1.007,-1.827 2.686,-2.163 3.58,-2.163 h 1.716 c 2.237,0 3.767,0.82 3.767,2.871 0,1.604 -0.597,2.126 -4.7,2.76 -4.512,0.709 -7.57,2.126 -7.57,6.228 0,4.102 3.431,6.228 7.384,6.228 h 1.417 c 2.349,0 5.259,-1.119 6.825,-4.14 L 9.137,10.255 C 8.242,11.821 6.824,12.456 5.594,12.456 H 4.289 c -2.238,0 -3.767,-0.747 -3.767,-2.797 0,-1.492 0.747,-2.163 4.401,-2.76 5.668,-0.932 7.868,-2.536 7.868,-6.228 0,-4.102 -3.431,-6.302 -7.384,-6.302 H 3.58 c -3.729,0 -6.004,2.461 -6.824,4.139 z"
             style="fill:#203649;fill-opacity:1;fill-rule:nonzero;stroke:none"
             id="path278" /></g><g
           id="g280"
           transform="translate(777.1685,224.9192)"><path
             d="m 0,0 c 1.007,-1.827 2.686,-2.163 3.58,-2.163 h 1.716 c 2.237,0 3.767,0.82 3.767,2.871 0,1.604 -0.597,2.126 -4.7,2.76 -4.512,0.709 -7.57,2.126 -7.57,6.228 0,4.102 3.431,6.228 7.384,6.228 h 1.417 c 2.349,0 5.259,-1.119 6.825,-4.14 L 9.137,10.255 C 8.242,11.821 6.824,12.456 5.594,12.456 H 4.289 c -2.238,0 -3.767,-0.747 -3.767,-2.797 0,-1.492 0.747,-2.163 4.401,-2.76 5.668,-0.932 7.868,-2.536 7.868,-6.228 0,-4.102 -3.431,-6.302 -7.384,-6.302 H 3.58 c -3.729,0 -6.004,2.461 -6.824,4.139 z"
             style="fill:#203649;fill-opacity:1;fill-rule:nonzero;stroke:none"
             id="path282" /></g><g
           id="g284"
           transform="translate(800.4058,226.821)"><path
             d="m 0,0 c 0,-2.238 1.565,-4.065 3.804,-4.065 h 1.64 c 2.238,0 3.804,1.827 3.804,4.065 v 13.724 h 3.73 V -7.235 h -2.164 l -0.522,2.089 C 9.211,-6.601 7.57,-7.533 5.444,-7.533 h -1.64 c -4.14,0 -7.533,3.394 -7.533,7.533 V 13.724 H 0 Z"
             style="fill:#203649;fill-opacity:1;fill-rule:nonzero;stroke:none"
             id="path286" /></g><g
           id="g288"
           transform="translate(820.8452,219.5862)"><path
             d="M 0,0 V 20.958 H 2.163 L 2.685,18.87 c 1.044,1.454 2.685,2.387 4.848,2.387 2.984,0 5.519,-1.678 6.787,-4.14 l -3.17,-1.492 c -0.709,1.269 -2.05,2.164 -3.617,2.164 -2.238,0 -3.804,-1.828 -3.804,-4.065 L 3.729,0 Z"
             style="fill:#203649;fill-opacity:1;fill-rule:nonzero;stroke:none"
             id="path290" /></g><g
           id="g292"
           transform="translate(856.4282,246.2874)"><path
             d="m 0,0 h 8.727 v -23.233 h 5.37 v -3.468 h -14.47 v 3.468 h 5.37 V -3.468 H 0 Z"
             style="fill:#203649;fill-opacity:1;fill-rule:nonzero;stroke:none"
             id="path294" /></g><g
           id="g296"
           transform="translate(888.354,233.3098)"><path
             d="m 0,0 c 0,2.237 -1.566,4.065 -3.804,4.065 h -1.64 C -7.683,4.065 -9.248,2.237 -9.248,0 V -1.492 H 0 Z m 3.356,-9.883 c -1.267,-2.461 -3.803,-4.138 -6.787,-4.138 h -2.013 c -4.14,0 -7.534,3.393 -7.534,7.532 V 0 c 0,4.14 3.394,7.533 7.534,7.533 h 1.64 C 0.336,7.533 3.729,4.14 3.729,0 V -4.96 H -9.248 v -1.529 c 0,-2.238 1.565,-4.065 3.804,-4.065 h 2.013 c 1.567,0 2.909,0.895 3.618,2.163 z"
             style="fill:#203649;fill-opacity:1;fill-rule:nonzero;stroke:none"
             id="path298" /></g><g
           id="g300"
           transform="translate(901.2612,224.9192)"><path
             d="m 0,0 c 1.007,-1.827 2.686,-2.163 3.58,-2.163 h 1.716 c 2.237,0 3.767,0.82 3.767,2.871 0,1.604 -0.597,2.126 -4.7,2.76 -4.512,0.709 -7.57,2.126 -7.57,6.228 0,4.102 3.431,6.228 7.384,6.228 h 1.417 c 2.349,0 5.259,-1.119 6.825,-4.14 L 9.137,10.255 C 8.242,11.821 6.824,12.456 5.594,12.456 H 4.289 c -2.238,0 -3.767,-0.747 -3.767,-2.797 0,-1.492 0.746,-2.163 4.401,-2.76 5.668,-0.932 7.868,-2.536 7.868,-6.228 0,-4.102 -3.431,-6.302 -7.384,-6.302 H 3.58 c -3.729,0 -6.004,2.461 -6.824,4.139 z"
             style="fill:#203649;fill-opacity:1;fill-rule:nonzero;stroke:none"
             id="path302" /></g><g
           id="g304"
           transform="translate(586.0142,169.8108)"><path
             d="M 0,0 V 20.958 H 2.163 L 2.685,18.87 c 1.044,1.454 2.685,2.387 4.848,2.387 2.984,0 5.519,-1.679 6.787,-4.14 l -3.17,-1.491 c -0.709,1.268 -2.051,2.162 -3.617,2.162 -2.238,0 -3.804,-1.827 -3.804,-4.064 L 3.729,0 Z"
             style="fill:#203649;fill-opacity:1;fill-rule:nonzero;stroke:none"
             id="path306" /></g><g
           id="g308"
           transform="translate(610.5562,194.9836)"><path
             d="m 0,0 5.071,6.115 h 5.034 L 3.729,0 Z m 6.488,-11.449 c 0,2.237 -1.566,4.064 -3.803,4.064 H 1.044 c -2.237,0 -3.804,-1.827 -3.804,-4.064 v -1.492 h 9.248 z m 3.357,-9.883 C 8.577,-23.793 6.041,-25.471 3.058,-25.471 H 1.044 c -4.14,0 -7.533,3.394 -7.533,7.533 v 6.489 c 0,4.139 3.393,7.533 7.533,7.533 h 1.641 c 4.139,0 7.533,-3.394 7.533,-7.533 v -4.96 H -2.76 v -1.529 c 0,-2.238 1.567,-4.065 3.804,-4.065 h 2.014 c 1.566,0 2.909,0.895 3.617,2.163 z"
             style="fill:#203649;fill-opacity:1;fill-rule:nonzero;stroke:none"
             id="path310" /></g><g
           id="g312"
           transform="translate(638.9761,189.1282)"><path
             d="m 0,0 v -3.468 h -5.705 v -15.849 h -3.73 v 15.849 h -3.169 V 0 h 3.169 v 0.672 c 0,4.288 3.431,7.011 7.72,7.011 4.288,0 7.757,-2.723 7.757,-7.011 V -19.317 H 2.313 V 0.672 c 0,2.237 -1.791,3.542 -4.028,3.542 -2.237,0 -3.99,-1.305 -3.99,-3.542 l 0,-0.672 z"
             style="fill:#203649;fill-opacity:1;fill-rule:nonzero;stroke:none"
             id="path314" /></g><g
           id="g316"
           transform="translate(663.9663,183.5344)"><path
             d="m 0,0 c 0,2.237 -1.566,4.064 -3.804,4.064 h -1.64 C -7.682,4.064 -9.248,2.237 -9.248,0 V -1.492 H 0 Z m 3.356,-9.883 c -1.267,-2.461 -3.803,-4.138 -6.787,-4.138 h -2.013 c -4.14,0 -7.534,3.393 -7.534,7.532 V 0 c 0,4.14 3.394,7.533 7.534,7.533 h 1.64 C 0.336,7.533 3.729,4.14 3.729,0 V -4.96 H -9.248 v -1.529 c 0,-2.238 1.566,-4.065 3.804,-4.065 h 2.013 c 1.567,0 2.91,0.895 3.618,2.163 z"
             style="fill:#203649;fill-opacity:1;fill-rule:nonzero;stroke:none"
             id="path318" /></g><g
           id="g320"
           transform="translate(677.1724,169.8108)"><path
             d="M 0,0 H -4.438 L 2.424,10.479 -4.438,20.958 H 0 l 4.661,-7.122 4.661,7.122 h 4.439 L 6.861,10.479 13.761,0 H 9.322 L 4.661,7.086 Z"
             style="fill:#203649;fill-opacity:1;fill-rule:nonzero;stroke:none"
             id="path322" /></g><path
           d="m 700.111,198.974 h 5.146 v -5.222 h -5.146 z m -3.58,-8.205 h 8.726 v -17.49 h 5.37 v -3.468 h -14.469 v 3.468 h 5.37 v 14.022 h -4.997 z"
           style="fill:#203649;fill-opacity:1;fill-rule:nonzero;stroke:none"
           id="path324" /><g
           id="g326"
           transform="translate(732.186,190.7688)"><path
             d="m 0,0 -6.937,-20.958 h -4.326 L -18.199,0 h 3.916 L -9.1,-15.998 -3.916,0 Z"
             style="fill:#203649;fill-opacity:1;fill-rule:nonzero;stroke:none"
             id="path328" /></g><path
           d="m 740.991,198.974 h 5.146 v -5.222 h -5.146 z m -3.58,-8.205 h 8.726 v -17.49 h 5.37 v -3.468 h -14.469 v 3.468 h 5.37 v 14.022 h -4.997 z"
           style="fill:#203649;fill-opacity:1;fill-rule:nonzero;stroke:none"
           id="path330" /><g
           id="g332"
           transform="translate(769.9702,172.7942)"><path
             d="m 0,0 c -1.007,-1.977 -3.058,-3.281 -5.444,-3.281 -3.394,0 -6.117,2.721 -6.117,6.115 V 12.94 h -3.169 v 3.468 h 3.169 v 7.31 h 3.73 v -7.31 h 6.824 V 12.94 H -7.831 V 2.834 c 0,-1.454 0.932,-2.647 2.387,-2.647 1.007,0 1.753,0.559 2.125,1.379 z"
             style="fill:#203649;fill-opacity:1;fill-rule:nonzero;stroke:none"
             id="path334" /></g><g
           id="g336"
           transform="translate(781.1226,194.9836)"><path
             d="m 0,0 5.072,6.115 h 5.034 L 3.729,0 Z m 6.489,-11.449 c 0,2.237 -1.566,4.064 -3.803,4.064 H 1.045 c -2.238,0 -3.804,-1.827 -3.804,-4.064 v -1.492 h 9.248 z m 3.357,-9.883 C 8.578,-23.793 6.042,-25.471 3.059,-25.471 H 1.045 c -4.14,0 -7.533,3.394 -7.533,7.533 v 6.489 c 0,4.139 3.393,7.533 7.533,7.533 h 1.641 c 4.139,0 7.533,-3.394 7.533,-7.533 v -4.96 H -2.759 v -1.529 c 0,-2.238 1.566,-4.065 3.804,-4.065 h 2.014 c 1.566,0 2.908,0.895 3.617,2.163 z"
             style="fill:#203649;fill-opacity:1;fill-rule:nonzero;stroke:none"
             id="path338" /></g><g
           id="g340"
           transform="translate(800.519,175.1438)"><path
             d="m 0,0 c 1.007,-1.827 2.686,-2.163 3.58,-2.163 h 1.716 c 2.237,0 3.767,0.82 3.767,2.871 0,1.604 -0.597,2.126 -4.7,2.76 -4.512,0.709 -7.57,2.126 -7.57,6.228 0,4.102 3.431,6.228 7.384,6.228 h 1.417 c 2.349,0 5.259,-1.119 6.825,-4.14 L 9.137,10.255 c -0.895,1.566 -2.313,2.2 -3.543,2.2 H 4.289 c -2.238,0 -3.767,-0.745 -3.767,-2.797 0,-1.491 0.746,-2.162 4.401,-2.76 5.668,-0.931 7.868,-2.535 7.868,-6.227 0,-4.102 -3.431,-6.302 -7.384,-6.302 H 3.58 c -3.729,0 -6.004,2.461 -6.824,4.139 z"
             style="fill:#203649;fill-opacity:1;fill-rule:nonzero;stroke:none"
             id="path342" /></g><g
           id="g344"
           transform="translate(586.0161,114.3)"><path
             d="M 0,0 V 26.701 H 16.334 V 23.233 H 3.729 v -8.129 h 9.919 V 11.635 H 3.729 L 3.729,0 Z"
             style="fill:#ffffff;fill-opacity:1;fill-rule:nonzero;stroke:none"
             id="path346" /></g><g
           id="g348"
           transform="translate(615.0698,117.47)"><path
             d="m 0,0 c 2.237,0 3.804,1.827 3.804,4.064 v 6.49 c 0,2.237 -1.567,4.064 -3.804,4.064 h -1.641 c -2.238,0 -3.803,-1.827 -3.803,-4.064 V 4.064 C -5.444,1.827 -3.879,0 -1.641,0 Z m -1.641,-3.469 c -4.139,0 -7.533,3.395 -7.533,7.533 v 6.49 c 0,4.139 3.394,7.533 7.533,7.533 H 0 c 4.14,0 7.533,-3.394 7.533,-7.533 V 4.064 C 7.533,-0.074 4.14,-3.469 0,-3.469 Z"
             style="fill:#ffffff;fill-opacity:1;fill-rule:nonzero;stroke:none"
             id="path350" /></g><g
           id="g352"
           transform="translate(642.6704,114.3)"><path
             d="m 0,0 v 13.724 c 0,2.237 -1.566,4.064 -3.804,4.064 h -1.64 c -2.239,0 -3.805,-1.827 -3.805,-4.064 V 0 h -3.729 v 20.958 h 2.164 l 0.521,-2.088 c 1.044,1.454 2.686,2.387 4.849,2.387 h 1.64 c 4.14,0 7.533,-3.394 7.533,-7.533 L 3.729,0 Z"
             style="fill:#ffffff;fill-opacity:1;fill-rule:nonzero;stroke:none"
             id="path354" /></g><g
           id="g356"
           transform="translate(660.6489,117.47)"><path
             d="m 0,0 h 1.641 c 2.163,0 3.803,1.716 3.803,3.878 v 6.825 c 0,2.163 -1.64,3.915 -3.803,3.915 H 0 c -2.237,0 -3.804,-1.827 -3.804,-4.064 V 4.064 C -3.804,1.827 -2.237,0 0,0 M 9.174,-3.17 H 7.011 L 6.488,-1.082 C 5.407,-2.536 3.767,-3.469 1.641,-3.469 H 0 c -4.14,0 -7.533,3.395 -7.533,7.533 v 6.49 c 0,4.139 3.393,7.533 7.533,7.533 h 1.641 c 1.529,0 2.796,-0.485 3.803,-1.269 v 6.713 h 3.73 z"
             style="fill:#ffffff;fill-opacity:1;fill-rule:nonzero;stroke:none"
             id="path358" /></g><g
           id="g360"
           transform="translate(679.7466,119.6331)"><path
             d="m 0,0 c 1.007,-1.827 2.686,-2.163 3.58,-2.163 h 1.716 c 2.237,0 3.767,0.82 3.767,2.871 0,1.604 -0.597,2.126 -4.7,2.76 -4.512,0.709 -7.57,2.126 -7.57,6.228 0,4.102 3.431,6.228 7.384,6.228 h 1.417 c 2.349,0 5.259,-1.119 6.825,-4.14 L 9.137,10.255 c -0.895,1.566 -2.313,2.2 -3.543,2.2 H 4.289 c -2.238,0 -3.767,-0.745 -3.767,-2.797 0,-1.491 0.747,-2.163 4.401,-2.759 5.668,-0.932 7.868,-2.536 7.868,-6.228 0,-4.102 -3.431,-6.303 -7.384,-6.303 H 3.58 c -3.729,0 -6.004,2.462 -6.824,4.14 z"
             style="fill:#ffffff;fill-opacity:1;fill-rule:nonzero;stroke:none"
             id="path362" /></g><g
           id="g364"
           transform="translate(722.2661,114.3)"><path
             d="m 0,0 v 13.127 l -8.093,13.574 h 4.029 L 1.827,16.073 7.794,26.701 h 4.027 L 3.729,13.09 V 0 Z"
             style="fill:#ffffff;fill-opacity:1;fill-rule:nonzero;stroke:none"
             id="path366" /></g><g
           id="g368"
           transform="translate(742.4819,123.0637)"><path
             d="m 0,0 c -1.678,0 -2.61,-1.007 -2.61,-2.685 0,-2.051 1.454,-2.909 3.319,-2.909 4.288,0 5.929,1.641 5.929,4.065 V 0 Z M 7.645,-6.489 C 5.444,-8.465 3.617,-9.063 0.261,-9.063 c -3.729,0 -6.601,2.723 -6.601,6.453 0,2.797 1.977,6.079 6.228,6.079 h 6.75 v 1.975 c 0,2.163 -1.156,3.58 -3.319,3.58 H 1.044 c -1.566,0 -3.021,-0.857 -3.767,-2.162 l -3.17,1.492 c 1.269,2.46 3.954,4.139 6.937,4.139 h 2.163 c 4.177,0 7.16,-2.76 7.16,-7.049 V -8.764 H 8.204 Z"
             style="fill:#ffffff;fill-opacity:1;fill-rule:nonzero;stroke:none"
             id="path370" /></g><g
           id="g372"
           transform="translate(772.9165,114.3)"><path
             d="m 0,0 v 13.724 c 0,2.237 -1.566,4.064 -3.804,4.064 h -1.64 c -2.239,0 -3.805,-1.827 -3.805,-4.064 V 0 h -3.729 v 20.958 h 2.164 l 0.521,-2.088 c 1.044,1.454 2.686,2.387 4.849,2.387 h 1.64 c 4.14,0 7.533,-3.394 7.533,-7.533 L 3.729,0 Z"
             style="fill:#ffffff;fill-opacity:1;fill-rule:nonzero;stroke:none"
             id="path374" /></g><g
           id="g376"
           transform="translate(805.3296,114.3)"><path
             d="m 0,0 v 23.233 h -6.303 v 3.468 H 10.031 V 23.233 H 3.729 L 3.729,0 Z"
             style="fill:#ffffff;fill-opacity:1;fill-rule:nonzero;stroke:none"
             id="path378" /></g><g
           id="g380"
           transform="translate(834.3101,114.3)"><path
             d="m 0,0 v 13.724 c 0,2.237 -1.566,4.064 -3.804,4.064 h -1.64 c -2.201,0 -3.804,-1.752 -3.804,-3.915 V 0 h -3.73 v 26.701 h 3.73 v -6.713 c 0.969,0.783 2.237,1.269 3.804,1.269 h 1.64 c 4.14,0 7.533,-3.394 7.533,-7.533 L 3.729,0 Z"
             style="fill:#ffffff;fill-opacity:1;fill-rule:nonzero;stroke:none"
             id="path382" /></g><g
           id="g384"
           transform="translate(853.9292,117.47)"><path
             d="m 0,0 c 2.237,0 3.804,1.827 3.804,4.064 v 6.49 c 0,2.237 -1.567,4.064 -3.804,4.064 h -1.641 c -2.238,0 -3.803,-1.827 -3.803,-4.064 V 4.064 C -5.444,1.827 -3.879,0 -1.641,0 Z m -1.641,-3.469 c -4.139,0 -7.533,3.395 -7.533,7.533 v 6.49 c 0,4.139 3.394,7.533 7.533,7.533 H 0 c 4.14,0 7.533,-3.394 7.533,-7.533 V 4.064 C 7.533,-0.074 4.14,-3.469 0,-3.469 Z"
             style="fill:#ffffff;fill-opacity:1;fill-rule:nonzero;stroke:none"
             id="path386" /></g><g
           id="g388"
           transform="translate(885.1841,114.3)"><path
             d="m 0,0 v 15.215 c 0,1.418 -0.895,2.573 -2.312,2.573 -1.417,0 -2.275,-1.155 -2.275,-2.573 V 0 h -3.728 v 15.215 c 0,1.418 -0.896,2.573 -2.313,2.573 -1.417,0 -2.275,-1.155 -2.275,-2.573 V 0 h -3.729 v 20.958 h 2.163 l 0.187,-1.23 c 0.894,0.932 2.125,1.529 3.654,1.529 1.827,0 3.244,-0.858 4.177,-2.163 0.894,1.305 2.312,2.163 4.139,2.163 3.319,0 6.041,-2.723 6.041,-6.042 L 3.729,0 Z"
             style="fill:#ffffff;fill-opacity:1;fill-rule:nonzero;stroke:none"
             id="path390" /></g><g
           id="g392"
           transform="translate(901.2241,123.0637)"><path
             d="m 0,0 c -1.678,0 -2.61,-1.007 -2.61,-2.685 0,-2.051 1.454,-2.909 3.319,-2.909 4.288,0 5.929,1.641 5.929,4.065 V 0 Z M 7.645,-6.489 C 5.444,-8.465 3.617,-9.063 0.261,-9.063 c -3.729,0 -6.601,2.723 -6.601,6.453 0,2.797 1.977,6.079 6.228,6.079 h 6.75 v 1.975 c 0,2.163 -1.156,3.58 -3.319,3.58 H 1.044 c -1.566,0 -3.021,-0.857 -3.767,-2.162 l -3.17,1.492 c 1.269,2.46 3.954,4.139 6.937,4.139 h 2.163 c 4.177,0 7.16,-2.76 7.16,-7.049 V -8.764 H 8.204 Z"
             style="fill:#ffffff;fill-opacity:1;fill-rule:nonzero;stroke:none"
             id="path394" /></g><g
           id="g396"
           transform="translate(921.1421,119.6331)"><path
             d="m 0,0 c 1.007,-1.827 2.686,-2.163 3.58,-2.163 h 1.716 c 2.237,0 3.767,0.82 3.767,2.871 0,1.604 -0.597,2.126 -4.7,2.76 -4.512,0.709 -7.57,2.126 -7.57,6.228 0,4.102 3.431,6.228 7.384,6.228 h 1.417 c 2.349,0 5.259,-1.119 6.825,-4.14 L 9.137,10.255 c -0.895,1.566 -2.313,2.2 -3.543,2.2 H 4.289 c -2.238,0 -3.767,-0.745 -3.767,-2.797 0,-1.491 0.746,-2.163 4.401,-2.759 5.668,-0.932 7.868,-2.536 7.868,-6.228 0,-4.102 -3.431,-6.303 -7.384,-6.303 H 3.58 c -3.729,0 -6.004,2.462 -6.824,4.14 z"
             style="fill:#ffffff;fill-opacity:1;fill-rule:nonzero;stroke:none"
             id="path398" /></g></g></g></g></svg>
